<?xml version="1.0" standalone="no"?><!DOCTYPE svg PUBLIC "-//W3C//DTD SVG 1.1//EN" "http://www.w3.org/Graphics/SVG/1.1/DTD/svg11.dtd"><svg t="1761732683118" class="icon" viewBox="0 0 1024 1024" version="1.1" xmlns="http://www.w3.org/2000/svg" p-id="16465" width="16" height="16" xmlns:xlink="http://www.w3.org/1999/xlink"><path d="M516.714482 439.783524c-10.83789 4.24484-18.532792 14.829847-18.532792 27.148916 0 16.076204 13.095784 29.171988 29.171988 29.171988h28.593967v14.703404h-28.593967c-16.076204 0-29.171988 13.095784-29.171988 29.171988s13.095784 29.171988 29.171988 29.171988h28.593967v26.101253c0 16.076204 13.095784 29.171988 29.171988 29.171988s29.153925-13.095784 29.153925-29.171988v-26.101253h28.575904c16.076204 0 29.153925-13.095784 29.153925-29.171988s-13.077721-29.171988-29.153925-29.171988h-28.575904v-14.703404h28.575904c16.076204 0 29.153925-13.095784 29.153925-29.171988 0-12.319069-7.676839-22.886012-18.496666-27.148916l25.324537-25.324537a29.208114 29.208114 0 0 0 0-41.238172c-11.018522-11.018522-30.219651-11.018522-41.238173 0l-52.473452 52.473452-52.491515-52.473452c-10.982395-11.000459-30.201588-11.018522-41.238173 0a29.208114 29.208114 0 0 0 0 41.238172l25.324537 25.324537z" fill="#ffffff" p-id="16466"></path><path d="M978.968566 649.406386a84.932933 84.932933 0 0 0-76.389063-47.217076c-12.427448 0-24.475569 2.673346-35.873417 7.947786l-12.246816 5.762145v-83.813018c0-110.618733-67.899383-212.765849-169.558794-256.11741v-43.008361c0-2.528841-0.505768-5.003493-1.445052-7.297513l37.715858-54.406209a53.521115 53.521115 0 0 0 7.62265-44.218593 53.232104 53.232104 0 0 0-28.792662-34.374175L649.008996 68.730288c-21.09776-9.754101-47.921538-3.847451-62.624942 13.186099l-12.246816 13.168037-11.163027-12.860963c-15.064667-17.503193-41.581372-23.319527-62.986206-13.438984L449.10411 92.663962a53.214041 53.214041 0 0 0-28.810725 34.374175 53.141789 53.141789 0 0 0 7.640713 44.254719l37.679732 54.424272a18.966308 18.966308 0 0 0-1.426989 7.243324v44.056024c-101.677474 44.254719-169.558793 147.232739-169.558794 258.212736v37.78811h-26.841841a52.744399 52.744399 0 0 0-47.180949-28.521714H55.164862a19.146939 19.146939 0 0 0-19.110814 19.110813v22.813759c0 10.530817 8.579996 19.09275 19.038561 19.09275l157.72743 1.282484-1.210231 234.279061H55.164862a19.146939 19.146939 0 0 0-19.110814 19.110813v22.795696a19.146939 19.146939 0 0 0 19.110814 19.110813h165.422332a53.069536 53.069536 0 0 0 50.757452-37.065584h23.138896c1.968883 0 3.847451 0.361263 5.61764 1.065726l221.797424 88.653942c9.031575 3.594567 18.550856 5.418945 28.250768 5.418945 12.301005 0 24.565885-3.016546 35.512154-8.760628l356.783348-188.00127c40.840783-21.567402 57.224061-72.722244 36.52369-113.996542zM466.209914 344.175269c3.142988 6.24985 9.609596 10.54888 17.069677 10.54888h182.510072c7.85747 0 14.613089-4.768672 17.539319-11.560416 68.242582 38.5287 110.112965 109.787829 110.112965 188.92249v112.479238l-83.234997 39.124784a73.914412 73.914412 0 0 0-71.15075-53.61143h-128.699947a15.209173 15.209173 0 0 1-6.502734-1.463116l-101.171706-48.192485a77.183842 77.183842 0 0 0-32.712365-7.387829h-14.324078v-37.78811a219.160205 219.160205 0 0 1 110.564544-191.072006z m44.128276 346.884742h128.663821a12.969342 12.969342 0 1 1 9.898606 21.404833l-9.86248 4.569977h-139.014006c-38.81771 0-70.410161 32.22466-70.41016 71.837149 0 10.530817 8.561933 19.09275 19.09275 19.09275h22.813759c10.169554 0 19.09275-9.57347 19.09275-20.501675 0-5.184124 4.226777-9.410901 9.410901-9.410902h139.014006c15.588499 0 30.508661-4.840924 41.689752-13.13191l211.573681-99.47377c11.560416-5.22025 26.570894 0.162568 32.098218 11.307532 5.96084 11.849427 1.282484 26.498642-10.386311 32.67624L557.157876 897.431505a15.660751 15.660751 0 0 1-12.608079 0.650273l-221.797424-88.617816a75.070453 75.070453 0 0 0-28.106263-5.455072h-20.772623V634.016581h95.969519a15.606562 15.606562 0 0 1 6.611113 1.481179l101.171706 48.156359c10.151491 4.858987 21.459023 7.405892 32.712365 7.405892z m113.544964-416.19305v18.857929h-98.697054v-18.857929h98.697054z m-6.520797-60.999259h-85.709649l-48.499559-69.814077 37.119774-17.43094 13.077721 14.613089c9.952796 11.488164 24.963274 18.06315 41.16592 18.06315 16.184583 0 31.213124-6.59305 40.967225-17.846393l13.619615-14.667278 36.650133 17.214183-48.39118 69.868266z" fill="#ffffff" p-id="16467"></path></svg>