<?xml version="1.0" standalone="no"?><!DOCTYPE svg PUBLIC "-//W3C//DTD SVG 1.1//EN" "http://www.w3.org/Graphics/SVG/1.1/DTD/svg11.dtd"><svg t="1761732644115" class="icon" viewBox="0 0 1024 1024" version="1.1" xmlns="http://www.w3.org/2000/svg" p-id="15950" xmlns:xlink="http://www.w3.org/1999/xlink" width="16" height="16"><path d="M512 512m512 0a512 512 0 1 0-1024 0 512 512 0 1 0 1024 0Z" fill="#ffffff" p-id="15951"></path><path d="M512.146286 202.057143l-7.424 0.219428a115.712 115.712 0 0 0-76.251429 35.035429l-2.925714 3.181714-0.950857-0.256a116.004571 116.004571 0 0 0-27.136-3.181714c-63.817143 0-115.785143 51.382857-115.785143 114.724571l0.256 7.314286c1.718857 26.806857 12.8 51.638857 30.72 70.765714l1.718857 1.718858-0.658286 0.731428C261.522286 488.850286 234.057143 541.074286 234.057143 599.296c0 139.117714 106.569143 222.646857 277.942857 222.646857s277.942857-83.529143 277.942857-222.646857l-0.256-9.325714c-2.889143-55.808-31.744-107.52-80.603428-160.438857l1.28-1.243429a111.177143 111.177143 0 0 0 30.500571-76.507429c0-61.732571-50.651429-111.835429-112.822857-111.835428l-8.996572 0.365714a113.664 113.664 0 0 0-11.812571 1.572572l-6.253714 1.353142-2.998857-3.510857a116.406857 116.406857 0 0 0-85.833143-37.668571z m0 43.885714a72.411429 72.411429 0 0 1 61.805714 34.486857l9.764571 15.981715 17.334858-7.168c8.630857-3.547429 17.773714-5.412571 26.989714-5.412572 38.034286 0 68.937143 30.573714 68.937143 67.949714 0 23.405714-12.141714 44.873143-31.853715 57.344l-23.186285 14.628572 19.382857 19.419428c54.272 54.308571 84.736 105.069714 84.736 156.16 0 112.164571-84.882286 178.724571-234.057143 178.724572-149.174857 0-234.057143-66.56-234.057143-178.761143 0-49.92 28.196571-97.865143 84.150857-154.002286l19.2-19.273143-22.857143-14.701714a70.765714 70.765714 0 0 1-32.877714-59.538286c0-38.985143 32.219429-70.838857 71.899429-70.838857 9.581714 0 18.870857 1.828571 27.501714 5.449143l16.822857 7.021714 9.984-15.250285a71.68 71.68 0 0 1 60.342857-32.219429z" fill="#ffffff" p-id="15952"></path><path d="M622.336 507.574857l-37.010286 7.716572a18.907429 18.907429 0 0 0-14.08 22.125714l0.914286 3.035428c0.365714 0.987429 0.804571 1.901714 1.353143 2.816l1.462857 2.157715-91.501714 72.777143-29.44-34.523429a18.761143 18.761143 0 0 0-25.234286-2.998857l-42.459429 30.829714a18.870857 18.870857 0 0 0-3.584 25.782857l2.121143 2.450286c6.107429 6.034286 15.725714 7.168 23.186286 2.413714l28.708571-20.845714 29.988572 35.218286c3.547429 4.132571 8.777143 6.582857 14.262857 6.582857l3.181714-0.292572a18.395429 18.395429 0 0 0 8.521143-3.84l104.996572-83.638857-0.950858-1.133714a18.651429 18.651429 0 0 0 32.950858-4.096l13.897142-37.558857a18.761143 18.761143 0 0 0-1.353142-15.981714l-1.938286-2.779429a18.761143 18.761143 0 0 0-17.993143-6.217143z" fill="#ffffff" p-id="15953"></path></svg>