<?xml version="1.0" standalone="no"?><!DOCTYPE svg PUBLIC "-//W3C//DTD SVG 1.1//EN" "http://www.w3.org/Graphics/SVG/1.1/DTD/svg11.dtd"><svg t="1761294096722" class="icon" viewBox="0 0 1024 1024" version="1.1" xmlns="http://www.w3.org/2000/svg" p-id="11026" xmlns:xlink="http://www.w3.org/1999/xlink" width="24" height="24"><path d="M553.106286 1010.102857a36.571429 36.571429 0 0 1-56.173715 0l-462.409142-526.848c-15.433143-17.554286-8.704-31.963429 15.140571-31.963428l172.83657099 0c23.844571 0 43.227429-19.01714299 43.22742901-42.203429l0-337.627429a42.788571 42.788571 0 0 1 43.154286-42.203428l432.274285 0a42.788571 42.788571 0 0 1 43.154286 42.203428L784.310857 409.088a42.788571 42.788571 0 0 0 43.22742899 42.203429L1000.37485701 451.291429c23.844571 0 30.573714 14.409143 15.14057199 31.963428L553.106286 1010.102857z" fill="#1afa29" p-id="11027"></path></svg>