<?xml version="1.0" standalone="no"?><!DOCTYPE svg PUBLIC "-//W3C//DTD SVG 1.1//EN" "http://www.w3.org/Graphics/SVG/1.1/DTD/svg11.dtd"><svg t="1761287967191" class="icon" viewBox="0 0 1024 1024" version="1.1" xmlns="http://www.w3.org/2000/svg" p-id="7916" xmlns:xlink="http://www.w3.org/1999/xlink" width="32" height="32"><path d="M512 1024a512 512 0 1 1 512-512 512 512 0 0 1-512 512z m123.834182-244.363636h163.444363V341.876364L635.834182 503.726545V779.636364z m-214.306909 0h163.456V533.154909l-58.181818 58.856727-105.332364-73.565091V779.636364z m-236.090182 0h188.881454V489.018182L185.437091 628.805818V779.636364z m486.714182-559.138909l36.317091 44.136727L508.706909 455.912727l-138.030545-91.927272L174.545455 511.092364l25.425454 33.105454L374.318545 415.418182l141.649455 95.650909 225.198545-217.041455 47.208728 36.794182L802.909091 209.454545z" fill="#d21d1a" p-id="7917"></path></svg>