<?xml version="1.0" standalone="no"?><!DOCTYPE svg PUBLIC "-//W3C//DTD SVG 1.1//EN" "http://www.w3.org/Graphics/SVG/1.1/DTD/svg11.dtd"><svg t="1761732276702" class="icon" viewBox="0 0 1024 1024" version="1.1" xmlns="http://www.w3.org/2000/svg" p-id="8649" width="16" height="16" xmlns:xlink="http://www.w3.org/1999/xlink"><path d="M827.733333 605.866667c-11.377778 0-22.755556 8.533333-25.6 19.911111l0 0c-45.511111 133.688889-173.511111 227.555556-321.422222 227.555556-187.733333 0-341.333333-153.6-341.333333-341.333333s153.6-341.333333 341.333333-341.333333c142.222222 0 261.688889 85.333333 312.888889 207.644444l-79.644444 0 113.777778 113.777778 113.777778-113.777778-85.333333 0c-54.044444-153.6-201.955556-264.533333-375.466667-264.533333-219.022222 0-398.222222 179.2-398.222222 398.222222s179.2 398.222222 398.222222 398.222222c173.511111 0 318.577778-110.933333 375.466667-264.533333l0 0c0 0 2.844444-8.533333 2.844444-11.377778C856.177778 620.088889 841.955556 605.866667 827.733333 605.866667z" p-id="8650" fill="#e6e6e6"></path></svg>